<svg id="visual" viewBox="0 0 950 300" width="950" height="300" xmlns="http://www.w3.org/2000/svg" xmlns:xlink="http://www.w3.org/1999/xlink" version="1.1"><path d="M0 98L17.7 110.3C35.3 122.7 70.7 147.3 105.8 154.7C141 162 176 152 211.2 144.3C246.3 136.7 281.7 131.3 316.8 136.8C352 142.3 387 158.7 422.2 158.7C457.3 158.7 492.7 142.3 527.8 133.8C563 125.3 598 124.7 633.2 121.2C668.3 117.7 703.7 111.3 738.8 102C774 92.7 809 80.3 844.2 73.7C879.3 67 914.7 66 932.3 65.5L950 65L950 0L932.3 0C914.7 0 879.3 0 844.2 0C809 0 774 0 738.8 0C703.7 0 668.3 0 633.2 0C598 0 563 0 527.8 0C492.7 0 457.3 0 422.2 0C387 0 352 0 316.8 0C281.7 0 246.3 0 211.2 0C176 0 141 0 105.8 0C70.7 0 35.3 0 17.7 0L0 0Z" fill="#b74300"></path><path d="M0 106L17.7 112.7C35.3 119.3 70.7 132.7 105.8 136C141 139.3 176 132.7 211.2 117C246.3 101.3 281.7 76.7 316.8 79.3C352 82 387 112 422.2 127.5C457.3 143 492.7 144 527.8 133.5C563 123 598 101 633.2 98.7C668.3 96.3 703.7 113.7 738.8 121.2C774 128.7 809 126.3 844.2 121.3C879.3 116.3 914.7 108.7 932.3 104.8L950 101L950 0L932.3 0C914.7 0 879.3 0 844.2 0C809 0 774 0 738.8 0C703.7 0 668.3 0 633.2 0C598 0 563 0 527.8 0C492.7 0 457.3 0 422.2 0C387 0 352 0 316.8 0C281.7 0 246.3 0 211.2 0C176 0 141 0 105.8 0C70.7 0 35.3 0 17.7 0L0 0Z" fill="#ce6600"></path><path d="M0 118L17.7 113.7C35.3 109.3 70.7 100.7 105.8 93.7C141 86.7 176 81.3 211.2 84C246.3 86.7 281.7 97.3 316.8 90.2C352 83 387 58 422.2 54.7C457.3 51.3 492.7 69.7 527.8 80.3C563 91 598 94 633.2 88.8C668.3 83.7 703.7 70.3 738.8 62.5C774 54.7 809 52.3 844.2 49C879.3 45.7 914.7 41.3 932.3 39.2L950 37L950 0L932.3 0C914.7 0 879.3 0 844.2 0C809 0 774 0 738.8 0C703.7 0 668.3 0 633.2 0C598 0 563 0 527.8 0C492.7 0 457.3 0 422.2 0C387 0 352 0 316.8 0C281.7 0 246.3 0 211.2 0C176 0 141 0 105.8 0C70.7 0 35.3 0 17.7 0L0 0Z" fill="#e28800"></path><path d="M0 88L17.7 76C35.3 64 70.7 40 105.8 35C141 30 176 44 211.2 50.5C246.3 57 281.7 56 316.8 55.2C352 54.3 387 53.7 422.2 58C457.3 62.3 492.7 71.7 527.8 72C563 72.3 598 63.7 633.2 56.3C668.3 49 703.7 43 738.8 47C774 51 809 65 844.2 62.2C879.3 59.3 914.7 39.7 932.3 29.8L950 20L950 0L932.3 0C914.7 0 879.3 0 844.2 0C809 0 774 0 738.8 0C703.7 0 668.3 0 633.2 0C598 0 563 0 527.8 0C492.7 0 457.3 0 422.2 0C387 0 352 0 316.8 0C281.7 0 246.3 0 211.2 0C176 0 141 0 105.8 0C70.7 0 35.3 0 17.7 0L0 0Z" fill="#f3ac00"></path><path d="M0 4L17.7 8.8C35.3 13.7 70.7 23.3 105.8 28C141 32.7 176 32.3 211.2 29C246.3 25.7 281.7 19.3 316.8 21.7C352 24 387 35 422.2 35.2C457.3 35.3 492.7 24.7 527.8 25.7C563 26.7 598 39.3 633.2 41.3C668.3 43.3 703.7 34.7 738.8 27C774 19.3 809 12.7 844.2 14.5C879.3 16.3 914.7 26.7 932.3 31.8L950 37L950 0L932.3 0C914.7 0 879.3 0 844.2 0C809 0 774 0 738.8 0C703.7 0 668.3 0 633.2 0C598 0 563 0 527.8 0C492.7 0 457.3 0 422.2 0C387 0 352 0 316.8 0C281.7 0 246.3 0 211.2 0C176 0 141 0 105.8 0C70.7 0 35.3 0 17.7 0L0 0Z" fill="#ffd100"></path></svg>