<?xml version="1.0" encoding="UTF-8" standalone="no"?>
<!DOCTYPE svg PUBLIC "-//W3C//DTD SVG 1.1//EN" "http://www.w3.org/Graphics/SVG/1.1/DTD/svg11.dtd">
<svg width="100%" height="100%" viewBox="0 0 960 300" version="1.1" xmlns="http://www.w3.org/2000/svg" xmlns:xlink="http://www.w3.org/1999/xlink" xml:space="preserve" xmlns:serif="http://www.serif.com/" style="fill-rule:evenodd;clip-rule:evenodd;stroke-linejoin:round;stroke-miterlimit:2;">
    <g transform="matrix(-1,1.22465e-16,-1.22465e-16,-1,960,301)">
        <path d="M0,132L22.8,125.3C45.7,118.7 91.3,105.3 137,93C182.7,80.7 228.3,69.3 274,63.3C319.7,57.3 365.3,56.7 411.2,61.5C457,66.3 503,76.7 548.8,90.3C594.7,104 640.3,121 686,117.3C731.7,113.7 777.3,89.3 823,83.7C868.7,78 914.3,91 937.2,97.5L960,104L960,301L0,301L0,132Z" style="fill:rgb(95,17,124);fill-rule:nonzero;"/>
    </g>
    <g transform="matrix(-1,1.22465e-16,-1.22465e-16,-1,960,301)">
        <path d="M0,133L22.8,125.7C45.7,118.3 91.3,103.7 137,104.8C182.7,106 228.3,123 274,129.7C319.7,136.3 365.3,132.7 411.2,133.7C457,134.7 503,140.3 548.8,139C594.7,137.7 640.3,129.3 686,119.8C731.7,110.3 777.3,99.7 823,103.8C868.7,108 914.3,127 937.2,136.5L960,146L960,301L0,301L0,133Z" style="fill:rgb(131,10,129);fill-rule:nonzero;"/>
    </g>
    <g transform="matrix(-1,1.22465e-16,-1.22465e-16,-1,960,301)">
        <path d="M0,133L22.8,131.2C45.7,129.3 91.3,125.7 137,127.7C182.7,129.7 228.3,137.3 274,148.2C319.7,159 365.3,173 411.2,175.2C457,177.3 503,167.7 548.8,162C594.7,156.3 640.3,154.7 686,154.7C731.7,154.7 777.3,156.3 823,153.7C868.7,151 914.3,144 937.2,140.5L960,137L960,301L0,301L0,133Z" style="fill:rgb(165,1,130);fill-rule:nonzero;"/>
    </g>
    <g transform="matrix(-1,1.22465e-16,-1.22465e-16,-1,960,301)">
        <path d="M0,221L22.8,218.3C45.7,215.7 91.3,210.3 137,206.5C182.7,202.7 228.3,200.3 274,194.3C319.7,188.3 365.3,178.7 411.2,182.5C457,186.3 503,203.7 548.8,204.8C594.7,206 640.3,191 686,190.7C731.7,190.3 777.3,204.7 823,211.2C868.7,217.7 914.3,216.3 937.2,215.7L960,215L960,301L0,301L0,221Z" style="fill:rgb(197,0,129);fill-rule:nonzero;"/>
    </g>
    <g transform="matrix(-1,1.22465e-16,-1.22465e-16,-1,960,301)">
        <path d="M0,238L22.8,238.5C45.7,239 91.3,240 137,235.5C182.7,231 228.3,221 274,216.2C319.7,211.3 365.3,211.7 411.2,218C457,224.3 503,236.7 548.8,235.2C594.7,233.7 640.3,218.3 686,214.2C731.7,210 777.3,217 823,216.5C868.7,216 914.3,208 937.2,204L960,200L960,301L0,301L0,238Z" style="fill:rgb(227,0,125);fill-rule:nonzero;"/>
    </g>
    <g transform="matrix(-1,1.22465e-16,-1.22465e-16,-1,960,301)">
        <path d="M0,259L22.8,257C45.7,255 91.3,251 137,251.3C182.7,251.7 228.3,256.3 274,260.5C319.7,264.7 365.3,268.3 411.2,268.2C457,268 503,264 548.8,258.8C594.7,253.7 640.3,247.3 686,243.5C731.7,239.7 777.3,238.3 823,242C868.7,245.7 914.3,254.3 937.2,258.7L960,263L960,301L0,301L0,259Z" style="fill:rgb(255,3,117);fill-rule:nonzero;"/>
    </g>
</svg>
