<svg id="visual" viewBox="0 0 950 300" width="950" height="300" xmlns="http://www.w3.org/2000/svg" xmlns:xlink="http://www.w3.org/1999/xlink" version="1.1"><path d="M0 226L119 133L238 226L356 200L475 144L594 199L713 219L831 159L950 151L950 301L831 301L713 301L594 301L475 301L356 301L238 301L119 301L0 301Z" fill="#9900ff"></path><path d="M0 175L119 206L238 195L356 219L475 224L594 229L713 155L831 165L950 145L950 301L831 301L713 301L594 301L475 301L356 301L238 301L119 301L0 301Z" fill="#8e00ec"></path><path d="M0 244L119 247L238 180L356 183L475 171L594 222L713 170L831 199L950 167L950 301L831 301L713 301L594 301L475 301L356 301L238 301L119 301L0 301Z" fill="#8200d9"></path><path d="M0 257L119 208L238 240L356 250L475 221L594 258L713 262L831 202L950 214L950 301L831 301L713 301L594 301L475 301L356 301L238 301L119 301L0 301Z" fill="#7700c6"></path><path d="M0 265L119 242L238 269L356 213L475 224L594 228L713 274L831 232L950 256L950 301L831 301L713 301L594 301L475 301L356 301L238 301L119 301L0 301Z" fill="#6c00b4"></path><path d="M0 268L119 285L238 285L356 253L475 265L594 251L713 264L831 245L950 257L950 301L831 301L713 301L594 301L475 301L356 301L238 301L119 301L0 301Z" fill="#6100a2"></path><path d="M0 298L119 260L238 279L356 262L475 272L594 269L713 292L831 280L950 259L950 301L831 301L713 301L594 301L475 301L356 301L238 301L119 301L0 301Z" fill="#560090"></path></svg>