<svg id="visual" viewBox="0 0 960 300" width="960" height="300" xmlns="http://www.w3.org/2000/svg" xmlns:xlink="http://www.w3.org/1999/xlink" version="1.1"><rect x="0" y="0" width="960" height="300" fill="#202730"></rect><path d="M0 90L22.8 87C45.7 84 91.3 78 137 80.3C182.7 82.7 228.3 93.3 274 92.8C319.7 92.3 365.3 80.7 411.2 71.2C457 61.7 503 54.3 548.8 56.8C594.7 59.3 640.3 71.7 686 84.2C731.7 96.7 777.3 109.3 823 115.8C868.7 122.3 914.3 122.7 937.2 122.8L960 123L960 301L937.2 301C914.3 301 868.7 301 823 301C777.3 301 731.7 301 686 301C640.3 301 594.7 301 548.8 301C503 301 457 301 411.2 301C365.3 301 319.7 301 274 301C228.3 301 182.7 301 137 301C91.3 301 45.7 301 22.8 301L0 301Z" fill="#5f117c"></path><path d="M0 155L22.8 143.8C45.7 132.7 91.3 110.3 137 105.2C182.7 100 228.3 112 274 117.7C319.7 123.3 365.3 122.7 411.2 127.5C457 132.3 503 142.7 548.8 142.8C594.7 143 640.3 133 686 129.5C731.7 126 777.3 129 823 125.3C868.7 121.7 914.3 111.3 937.2 106.2L960 101L960 301L937.2 301C914.3 301 868.7 301 823 301C777.3 301 731.7 301 686 301C640.3 301 594.7 301 548.8 301C503 301 457 301 411.2 301C365.3 301 319.7 301 274 301C228.3 301 182.7 301 137 301C91.3 301 45.7 301 22.8 301L0 301Z" fill="#830a81"></path><path d="M0 128L22.8 129.8C45.7 131.7 91.3 135.3 137 142.3C182.7 149.3 228.3 159.7 274 166.7C319.7 173.7 365.3 177.3 411.2 172.8C457 168.3 503 155.7 548.8 147.8C594.7 140 640.3 137 686 136.8C731.7 136.7 777.3 139.3 823 139.8C868.7 140.3 914.3 138.7 937.2 137.8L960 137L960 301L937.2 301C914.3 301 868.7 301 823 301C777.3 301 731.7 301 686 301C640.3 301 594.7 301 548.8 301C503 301 457 301 411.2 301C365.3 301 319.7 301 274 301C228.3 301 182.7 301 137 301C91.3 301 45.7 301 22.8 301L0 301Z" fill="#a50182"></path><path d="M0 192L22.8 193.8C45.7 195.7 91.3 199.3 137 200.7C182.7 202 228.3 201 274 194.5C319.7 188 365.3 176 411.2 177.2C457 178.3 503 192.7 548.8 192.5C594.7 192.3 640.3 177.7 686 179.7C731.7 181.7 777.3 200.3 823 209.3C868.7 218.3 914.3 217.7 937.2 217.3L960 217L960 301L937.2 301C914.3 301 868.7 301 823 301C777.3 301 731.7 301 686 301C640.3 301 594.7 301 548.8 301C503 301 457 301 411.2 301C365.3 301 319.7 301 274 301C228.3 301 182.7 301 137 301C91.3 301 45.7 301 22.8 301L0 301Z" fill="#c50081"></path><path d="M0 230L22.8 226.2C45.7 222.3 91.3 214.7 137 209.3C182.7 204 228.3 201 274 201.2C319.7 201.3 365.3 204.7 411.2 206.8C457 209 503 210 548.8 210.2C594.7 210.3 640.3 209.7 686 207.7C731.7 205.7 777.3 202.3 823 207.7C868.7 213 914.3 227 937.2 234L960 241L960 301L937.2 301C914.3 301 868.7 301 823 301C777.3 301 731.7 301 686 301C640.3 301 594.7 301 548.8 301C503 301 457 301 411.2 301C365.3 301 319.7 301 274 301C228.3 301 182.7 301 137 301C91.3 301 45.7 301 22.8 301L0 301Z" fill="#e3007d"></path><path d="M0 272L22.8 268.8C45.7 265.7 91.3 259.3 137 254.7C182.7 250 228.3 247 274 244.5C319.7 242 365.3 240 411.2 239.8C457 239.7 503 241.3 548.8 245.8C594.7 250.3 640.3 257.7 686 262C731.7 266.3 777.3 267.7 823 263.2C868.7 258.7 914.3 248.3 937.2 243.2L960 238L960 301L937.2 301C914.3 301 868.7 301 823 301C777.3 301 731.7 301 686 301C640.3 301 594.7 301 548.8 301C503 301 457 301 411.2 301C365.3 301 319.7 301 274 301C228.3 301 182.7 301 137 301C91.3 301 45.7 301 22.8 301L0 301Z" fill="#ff0375"></path></svg>