<svg id="visual" viewBox="0 0 950 300" width="950" height="300" xmlns="http://www.w3.org/2000/svg" xmlns:xlink="http://www.w3.org/1999/xlink" version="1.1"><path d="M0 124L13.2 139.2C26.3 154.3 52.7 184.7 79 191.2C105.3 197.7 131.7 180.3 158.2 155C184.7 129.7 211.3 96.3 237.8 109.7C264.3 123 290.7 183 317 188.7C343.3 194.3 369.7 145.7 396 139C422.3 132.3 448.7 167.7 475 152.3C501.3 137 527.7 71 554 43.2C580.3 15.3 606.7 25.7 633.2 35.7C659.7 45.7 686.3 55.3 712.8 99C739.3 142.7 765.7 220.3 792 210.8C818.3 201.3 844.7 104.7 871 57.2C897.3 9.7 923.7 11.3 936.8 12.2L950 13L950 0L936.8 0C923.7 0 897.3 0 871 0C844.7 0 818.3 0 792 0C765.7 0 739.3 0 712.8 0C686.3 0 659.7 0 633.2 0C606.7 0 580.3 0 554 0C527.7 0 501.3 0 475 0C448.7 0 422.3 0 396 0C369.7 0 343.3 0 317 0C290.7 0 264.3 0 237.8 0C211.3 0 184.7 0 158.2 0C131.7 0 105.3 0 79 0C52.7 0 26.3 0 13.2 0L0 0Z" fill="#00c3ff" stroke-linecap="round" stroke-linejoin="miter"></path></svg>