<svg id="visual" viewBox="0 0 950 300" width="950" height="300" xmlns="http://www.w3.org/2000/svg" xmlns:xlink="http://www.w3.org/1999/xlink" version="1.1"><path d="M0 95L119 123L238 157L356 145L475 177L594 150L713 161L831 104L950 101L950 0L831 0L713 0L594 0L475 0L356 0L238 0L119 0L0 0Z" fill="#9900ff"></path><path d="M0 83L119 118L238 71L356 130L475 115L594 118L713 79L831 114L950 116L950 0L831 0L713 0L594 0L475 0L356 0L238 0L119 0L0 0Z" fill="#8e00ec"></path><path d="M0 81L119 68L238 80L356 52L475 129L594 62L713 64L831 119L950 58L950 0L831 0L713 0L594 0L475 0L356 0L238 0L119 0L0 0Z" fill="#8200d9"></path><path d="M0 90L119 98L238 36L356 40L475 49L594 110L713 45L831 90L950 108L950 0L831 0L713 0L594 0L475 0L356 0L238 0L119 0L0 0Z" fill="#7700c6"></path><path d="M0 85L119 46L238 61L356 32L475 60L594 61L713 43L831 76L950 77L950 0L831 0L713 0L594 0L475 0L356 0L238 0L119 0L0 0Z" fill="#6c00b4"></path><path d="M0 53L119 46L238 27L356 23L475 20L594 60L713 54L831 29L950 36L950 0L831 0L713 0L594 0L475 0L356 0L238 0L119 0L0 0Z" fill="#6100a2"></path><path d="M0 28L119 14L238 21L356 31L475 32L594 8L713 26L831 3L950 30L950 0L831 0L713 0L594 0L475 0L356 0L238 0L119 0L0 0Z" fill="#560090"></path></svg>