<svg id="visual" viewBox="0 0 950 300" width="950" height="300" xmlns="http://www.w3.org/2000/svg" xmlns:xlink="http://www.w3.org/1999/xlink" version="1.1"><path d="M0 190L22.7 186.3C45.3 182.7 90.7 175.3 135.8 161.7C181 148 226 128 271.2 118.3C316.3 108.7 361.7 109.3 407 112.2C452.3 115 497.7 120 543 130.2C588.3 140.3 633.7 155.7 678.8 158.2C724 160.7 769 150.3 814.2 147.5C859.3 144.7 904.7 149.3 927.3 151.7L950 154L950 301L927.3 301C904.7 301 859.3 301 814.2 301C769 301 724 301 678.8 301C633.7 301 588.3 301 543 301C497.7 301 452.3 301 407 301C361.7 301 316.3 301 271.2 301C226 301 181 301 135.8 301C90.7 301 45.3 301 22.7 301L0 301Z" fill="#073779"></path><path d="M0 177L22.7 166.3C45.3 155.7 90.7 134.3 135.8 136.8C181 139.3 226 165.7 271.2 175C316.3 184.3 361.7 176.7 407 165.7C452.3 154.7 497.7 140.3 543 147.3C588.3 154.3 633.7 182.7 678.8 189.5C724 196.3 769 181.7 814.2 166C859.3 150.3 904.7 133.7 927.3 125.3L950 117L950 301L927.3 301C904.7 301 859.3 301 814.2 301C769 301 724 301 678.8 301C633.7 301 588.3 301 543 301C497.7 301 452.3 301 407 301C361.7 301 316.3 301 271.2 301C226 301 181 301 135.8 301C90.7 301 45.3 301 22.7 301L0 301Z" fill="#044d91"></path><path d="M0 159L22.7 164.5C45.3 170 90.7 181 135.8 190.7C181 200.3 226 208.7 271.2 207.3C316.3 206 361.7 195 407 196C452.3 197 497.7 210 543 209C588.3 208 633.7 193 678.8 190.7C724 188.3 769 198.7 814.2 198.8C859.3 199 904.7 189 927.3 184L950 179L950 301L927.3 301C904.7 301 859.3 301 814.2 301C769 301 724 301 678.8 301C633.7 301 588.3 301 543 301C497.7 301 452.3 301 407 301C361.7 301 316.3 301 271.2 301C226 301 181 301 135.8 301C90.7 301 45.3 301 22.7 301L0 301Z" fill="#0163a8"></path><path d="M0 207L22.7 212.7C45.3 218.3 90.7 229.7 135.8 227.5C181 225.3 226 209.7 271.2 197.8C316.3 186 361.7 178 407 179.8C452.3 181.7 497.7 193.3 543 204.8C588.3 216.3 633.7 227.7 678.8 233.7C724 239.7 769 240.3 814.2 236C859.3 231.7 904.7 222.3 927.3 217.7L950 213L950 301L927.3 301C904.7 301 859.3 301 814.2 301C769 301 724 301 678.8 301C633.7 301 588.3 301 543 301C497.7 301 452.3 301 407 301C361.7 301 316.3 301 271.2 301C226 301 181 301 135.8 301C90.7 301 45.3 301 22.7 301L0 301Z" fill="#007abf"></path><path d="M0 259L22.7 251.2C45.3 243.3 90.7 227.7 135.8 219.3C181 211 226 210 271.2 210C316.3 210 361.7 211 407 214C452.3 217 497.7 222 543 221.5C588.3 221 633.7 215 678.8 212.3C724 209.7 769 210.3 814.2 211.8C859.3 213.3 904.7 215.7 927.3 216.8L950 218L950 301L927.3 301C904.7 301 859.3 301 814.2 301C769 301 724 301 678.8 301C633.7 301 588.3 301 543 301C497.7 301 452.3 301 407 301C361.7 301 316.3 301 271.2 301C226 301 181 301 135.8 301C90.7 301 45.3 301 22.7 301L0 301Z" fill="#0092d5"></path><path d="M0 229L22.7 236.2C45.3 243.3 90.7 257.7 135.8 262.3C181 267 226 262 271.2 258.7C316.3 255.3 361.7 253.7 407 255C452.3 256.3 497.7 260.7 543 255.8C588.3 251 633.7 237 678.8 237C724 237 769 251 814.2 258.7C859.3 266.3 904.7 267.7 927.3 268.3L950 269L950 301L927.3 301C904.7 301 859.3 301 814.2 301C769 301 724 301 678.8 301C633.7 301 588.3 301 543 301C497.7 301 452.3 301 407 301C361.7 301 316.3 301 271.2 301C226 301 181 301 135.8 301C90.7 301 45.3 301 22.7 301L0 301Z" fill="#00aaeb"></path><path d="M0 271L22.7 269C45.3 267 90.7 263 135.8 264.8C181 266.7 226 274.3 271.2 275.3C316.3 276.3 361.7 270.7 407 271.8C452.3 273 497.7 281 543 284C588.3 287 633.7 285 678.8 280.7C724 276.3 769 269.7 814.2 270.5C859.3 271.3 904.7 279.7 927.3 283.8L950 288L950 301L927.3 301C904.7 301 859.3 301 814.2 301C769 301 724 301 678.8 301C633.7 301 588.3 301 543 301C497.7 301 452.3 301 407 301C361.7 301 316.3 301 271.2 301C226 301 181 301 135.8 301C90.7 301 45.3 301 22.7 301L0 301Z" fill="#00c3ff"></path></svg>