<svg id="visual" viewBox="0 0 950 600" width="950" height="600" xmlns="http://www.w3.org/2000/svg" xmlns:xlink="http://www.w3.org/1999/xlink" version="1.1"><rect x="0" y="0" width="950" height="600" fill="#FF0066"></rect><g transform="translate(462.9978913816106 332.4684538634591)"><path d="M122 -221C158.4 -190.4 188.3 -158.2 222.6 -121.1C256.8 -84 295.4 -42 297.4 1.2C299.5 44.3 264.9 88.7 230 124.6C195.1 160.5 159.8 188.1 121.4 210.1C83 232.1 41.5 248.5 1.2 246.4C-39.1 244.3 -78.1 223.7 -128.2 208.4C-178.3 193.2 -239.4 183.3 -262 149.5C-284.7 115.7 -268.8 57.8 -256.6 7.1C-244.3 -43.7 -235.6 -87.3 -224.7 -141.5C-213.8 -195.6 -200.6 -260.2 -162.8 -290C-125 -319.8 -62.5 -314.9 -9.8 -297.9C42.8 -280.9 85.7 -251.7 122 -221" fill="#BB004B"></path></g></svg>