<svg id="visual" viewBox="0 0 950 300" width="950" height="300" xmlns="http://www.w3.org/2000/svg" xmlns:xlink="http://www.w3.org/1999/xlink" version="1.1"><path d="M0 168L41 168L41 134L83 134L83 159L124 159L124 197L165 197L165 208L207 208L207 224L248 224L248 139L289 139L289 188L330 188L330 157L372 157L372 153L413 153L413 150L454 150L454 192L496 192L496 171L537 171L537 125L578 125L578 128L620 128L620 189L661 189L661 204L702 204L702 172L743 172L743 209L785 209L785 240L826 240L826 146L867 146L867 219L909 219L909 139L950 139L950 170L950 301L950 301L909 301L909 301L867 301L867 301L826 301L826 301L785 301L785 301L743 301L743 301L702 301L702 301L661 301L661 301L620 301L620 301L578 301L578 301L537 301L537 301L496 301L496 301L454 301L454 301L413 301L413 301L372 301L372 301L330 301L330 301L289 301L289 301L248 301L248 301L207 301L207 301L165 301L165 301L124 301L124 301L83 301L83 301L41 301L41 301L0 301Z" fill="#83ff00"></path><path d="M0 171L41 171L41 175L83 175L83 236L124 236L124 211L165 211L165 223L207 223L207 234L248 234L248 237L289 237L289 164L330 164L330 146L372 146L372 198L413 198L413 189L454 189L454 213L496 213L496 211L537 211L537 173L578 173L578 222L620 222L620 170L661 170L661 240L702 240L702 167L743 167L743 254L785 254L785 144L826 144L826 243L867 243L867 183L909 183L909 221L950 221L950 215L950 301L950 301L909 301L909 301L867 301L867 301L826 301L826 301L785 301L785 301L743 301L743 301L702 301L702 301L661 301L661 301L620 301L620 301L578 301L578 301L537 301L537 301L496 301L496 301L454 301L454 301L413 301L413 301L372 301L372 301L330 301L330 301L289 301L289 301L248 301L248 301L207 301L207 301L165 301L165 301L124 301L124 301L83 301L83 301L41 301L41 301L0 301Z" fill="#6be30c"></path><path d="M0 177L41 177L41 259L83 259L83 182L124 182L124 220L165 220L165 196L207 196L207 177L248 177L248 201L289 201L289 179L330 179L330 213L372 213L372 221L413 221L413 231L454 231L454 256L496 256L496 257L537 257L537 203L578 203L578 262L620 262L620 197L661 197L661 232L702 232L702 223L743 223L743 169L785 169L785 219L826 219L826 215L867 215L867 249L909 249L909 243L950 243L950 210L950 301L950 301L909 301L909 301L867 301L867 301L826 301L826 301L785 301L785 301L743 301L743 301L702 301L702 301L661 301L661 301L620 301L620 301L578 301L578 301L537 301L537 301L496 301L496 301L454 301L454 301L413 301L413 301L372 301L372 301L330 301L330 301L289 301L289 301L248 301L248 301L207 301L207 301L165 301L165 301L124 301L124 301L83 301L83 301L41 301L41 301L0 301Z" fill="#54c711"></path><path d="M0 196L41 196L41 191L83 191L83 218L124 218L124 205L165 205L165 191L207 191L207 262L248 262L248 219L289 219L289 227L330 227L330 272L372 272L372 254L413 254L413 258L454 258L454 265L496 265L496 191L537 191L537 218L578 218L578 215L620 215L620 221L661 221L661 193L702 193L702 261L743 261L743 228L785 228L785 200L826 200L826 265L867 265L867 243L909 243L909 195L950 195L950 188L950 301L950 301L909 301L909 301L867 301L867 301L826 301L826 301L785 301L785 301L743 301L743 301L702 301L702 301L661 301L661 301L620 301L620 301L578 301L578 301L537 301L537 301L496 301L496 301L454 301L454 301L413 301L413 301L372 301L372 301L330 301L330 301L289 301L289 301L248 301L248 301L207 301L207 301L165 301L165 301L124 301L124 301L83 301L83 301L41 301L41 301L0 301Z" fill="#3eac12"></path><path d="M0 242L41 242L41 279L83 279L83 273L124 273L124 232L165 232L165 270L207 270L207 247L248 247L248 271L289 271L289 221L330 221L330 276L372 276L372 213L413 213L413 254L454 254L454 243L496 243L496 230L537 230L537 269L578 269L578 246L620 246L620 213L661 213L661 214L702 214L702 245L743 245L743 231L785 231L785 260L826 260L826 243L867 243L867 240L909 240L909 213L950 213L950 254L950 301L950 301L909 301L909 301L867 301L867 301L826 301L826 301L785 301L785 301L743 301L743 301L702 301L702 301L661 301L661 301L620 301L620 301L578 301L578 301L537 301L537 301L496 301L496 301L454 301L454 301L413 301L413 301L372 301L372 301L330 301L330 301L289 301L289 301L248 301L248 301L207 301L207 301L165 301L165 301L124 301L124 301L83 301L83 301L41 301L41 301L0 301Z" fill="#2a9210"></path><path d="M0 284L41 284L41 287L83 287L83 270L124 270L124 285L165 285L165 252L207 252L207 273L248 273L248 272L289 272L289 250L330 250L330 240L372 240L372 238L413 238L413 273L454 273L454 239L496 239L496 288L537 288L537 232L578 232L578 279L620 279L620 286L661 286L661 273L702 273L702 289L743 289L743 276L785 276L785 263L826 263L826 258L867 258L867 243L909 243L909 264L950 264L950 250L950 301L950 301L909 301L909 301L867 301L867 301L826 301L826 301L785 301L785 301L743 301L743 301L702 301L702 301L661 301L661 301L620 301L620 301L578 301L578 301L537 301L537 301L496 301L496 301L454 301L454 301L413 301L413 301L372 301L372 301L330 301L330 301L289 301L289 301L248 301L248 301L207 301L207 301L165 301L165 301L124 301L124 301L83 301L83 301L41 301L41 301L0 301Z" fill="#15780d"></path><path d="M0 266L41 266L41 281L83 281L83 258L124 258L124 281L165 281L165 268L207 268L207 259L248 259L248 263L289 263L289 289L330 289L330 277L372 277L372 280L413 280L413 295L454 295L454 285L496 285L496 268L537 268L537 261L578 261L578 289L620 289L620 278L661 278L661 285L702 285L702 298L743 298L743 268L785 268L785 262L826 262L826 262L867 262L867 270L909 270L909 282L950 282L950 282L950 301L950 301L909 301L909 301L867 301L867 301L826 301L826 301L785 301L785 301L743 301L743 301L702 301L702 301L661 301L661 301L620 301L620 301L578 301L578 301L537 301L537 301L496 301L496 301L454 301L454 301L413 301L413 301L372 301L372 301L330 301L330 301L289 301L289 301L248 301L248 301L207 301L207 301L165 301L165 301L124 301L124 301L83 301L83 301L41 301L41 301L0 301Z" fill="#005f09"></path></svg>