<svg id="visual" viewBox="0 0 950 300" width="950" height="300" xmlns="http://www.w3.org/2000/svg" xmlns:xlink="http://www.w3.org/1999/xlink" version="1.1"><path d="M0 62L22.7 61.2C45.3 60.3 90.7 58.7 135.8 56C181 53.3 226 49.7 271.2 49.2C316.3 48.7 361.7 51.3 407 49C452.3 46.7 497.7 39.3 543 45.2C588.3 51 633.7 70 678.8 69C724 68 769 47 814.2 39.3C859.3 31.7 904.7 37.3 927.3 40.2L950 43L950 0L927.3 0C904.7 0 859.3 0 814.2 0C769 0 724 0 678.8 0C633.7 0 588.3 0 543 0C497.7 0 452.3 0 407 0C361.7 0 316.3 0 271.2 0C226 0 181 0 135.8 0C90.7 0 45.3 0 22.7 0L0 0Z" fill="#fa7268"></path><path d="M0 43L22.7 41.8C45.3 40.7 90.7 38.3 135.8 41C181 43.7 226 51.3 271.2 56.8C316.3 62.3 361.7 65.7 407 66C452.3 66.3 497.7 63.7 543 57.3C588.3 51 633.7 41 678.8 40C724 39 769 47 814.2 51.2C859.3 55.3 904.7 55.7 927.3 55.8L950 56L950 0L927.3 0C904.7 0 859.3 0 814.2 0C769 0 724 0 678.8 0C633.7 0 588.3 0 543 0C497.7 0 452.3 0 407 0C361.7 0 316.3 0 271.2 0C226 0 181 0 135.8 0C90.7 0 45.3 0 22.7 0L0 0Z" fill="#eb5967"></path><path d="M0 36L22.7 37C45.3 38 90.7 40 135.8 36.3C181 32.7 226 23.3 271.2 18.7C316.3 14 361.7 14 407 13.3C452.3 12.7 497.7 11.3 543 14.5C588.3 17.7 633.7 25.3 678.8 26.3C724 27.3 769 21.7 814.2 24.3C859.3 27 904.7 38 927.3 43.5L950 49L950 0L927.3 0C904.7 0 859.3 0 814.2 0C769 0 724 0 678.8 0C633.7 0 588.3 0 543 0C497.7 0 452.3 0 407 0C361.7 0 316.3 0 271.2 0C226 0 181 0 135.8 0C90.7 0 45.3 0 22.7 0L0 0Z" fill="#da3f67"></path><path d="M0 5L22.7 5.8C45.3 6.7 90.7 8.3 135.8 12.2C181 16 226 22 271.2 25C316.3 28 361.7 28 407 27.7C452.3 27.3 497.7 26.7 543 26.5C588.3 26.3 633.7 26.7 678.8 25.2C724 23.7 769 20.3 814.2 16C859.3 11.7 904.7 6.3 927.3 3.7L950 1L950 0L927.3 0C904.7 0 859.3 0 814.2 0C769 0 724 0 678.8 0C633.7 0 588.3 0 543 0C497.7 0 452.3 0 407 0C361.7 0 316.3 0 271.2 0C226 0 181 0 135.8 0C90.7 0 45.3 0 22.7 0L0 0Z" fill="#c62368"></path></svg>