<svg id="visual" viewBox="0 0 950 300" width="950" height="300" xmlns="http://www.w3.org/2000/svg" xmlns:xlink="http://www.w3.org/1999/xlink" version="1.1"><path d="M0 49L15.8 48.5C31.7 48 63.3 47 95 45C126.7 43 158.3 40 190 36C221.7 32 253.3 27 285 25C316.7 23 348.3 24 380 24.5C411.7 25 443.3 25 475 28C506.7 31 538.3 37 570 39.5C601.7 42 633.3 41 665 37.5C696.7 34 728.3 28 760 26.5C791.7 25 823.3 28 855 32C886.7 36 918.3 41 934.2 43.5L950 46L950 0L934.2 0C918.3 0 886.7 0 855 0C823.3 0 791.7 0 760 0C728.3 0 696.7 0 665 0C633.3 0 601.7 0 570 0C538.3 0 506.7 0 475 0C443.3 0 411.7 0 380 0C348.3 0 316.7 0 285 0C253.3 0 221.7 0 190 0C158.3 0 126.7 0 95 0C63.3 0 31.7 0 15.8 0L0 0Z" fill="#00141a"></path><path d="M0 130L15.8 126.5C31.7 123 63.3 116 95 111.5C126.7 107 158.3 105 190 102.5C221.7 100 253.3 97 285 90.5C316.7 84 348.3 74 380 70C411.7 66 443.3 68 475 71C506.7 74 538.3 78 570 78C601.7 78 633.3 74 665 77C696.7 80 728.3 90 760 97C791.7 104 823.3 108 855 106C886.7 104 918.3 96 934.2 92L950 88L950 44L934.2 41.5C918.3 39 886.7 34 855 30C823.3 26 791.7 23 760 24.5C728.3 26 696.7 32 665 35.5C633.3 39 601.7 40 570 37.5C538.3 35 506.7 29 475 26C443.3 23 411.7 23 380 22.5C348.3 22 316.7 21 285 23C253.3 25 221.7 30 190 34C158.3 38 126.7 41 95 43C63.3 45 31.7 46 15.8 46.5L0 47Z" fill="#02141a"></path><path d="M0 148L15.8 144C31.7 140 63.3 132 95 127.5C126.7 123 158.3 122 190 119C221.7 116 253.3 111 285 105C316.7 99 348.3 92 380 89.5C411.7 87 443.3 89 475 92.5C506.7 96 538.3 101 570 102C601.7 103 633.3 100 665 102.5C696.7 105 728.3 113 760 119C791.7 125 823.3 129 855 126.5C886.7 124 918.3 115 934.2 110.5L950 106L950 86L934.2 90C918.3 94 886.7 102 855 104C823.3 106 791.7 102 760 95C728.3 88 696.7 78 665 75C633.3 72 601.7 76 570 76C538.3 76 506.7 72 475 69C443.3 66 411.7 64 380 68C348.3 72 316.7 82 285 88.5C253.3 95 221.7 98 190 100.5C158.3 103 126.7 105 95 109.5C63.3 114 31.7 121 15.8 124.5L0 128Z" fill="#04141a"></path><path d="M0 163L15.8 158.5C31.7 154 63.3 145 95 141.5C126.7 138 158.3 140 190 137.5C221.7 135 253.3 128 285 120C316.7 112 348.3 103 380 100.5C411.7 98 443.3 102 475 107C506.7 112 538.3 118 570 118.5C601.7 119 633.3 114 665 116.5C696.7 119 728.3 129 760 134.5C791.7 140 823.3 141 855 137C886.7 133 918.3 124 934.2 119.5L950 115L950 104L934.2 108.5C918.3 113 886.7 122 855 124.5C823.3 127 791.7 123 760 117C728.3 111 696.7 103 665 100.5C633.3 98 601.7 101 570 100C538.3 99 506.7 94 475 90.5C443.3 87 411.7 85 380 87.5C348.3 90 316.7 97 285 103C253.3 109 221.7 114 190 117C158.3 120 126.7 121 95 125.5C63.3 130 31.7 138 15.8 142L0 146Z" fill="#06141a"></path><path d="M0 169L15.8 166C31.7 163 63.3 157 95 154.5C126.7 152 158.3 153 190 149C221.7 145 253.3 136 285 128C316.7 120 348.3 113 380 111.5C411.7 110 443.3 114 475 119C506.7 124 538.3 130 570 129.5C601.7 129 633.3 122 665 123.5C696.7 125 728.3 135 760 141.5C791.7 148 823.3 151 855 147.5C886.7 144 918.3 134 934.2 129L950 124L950 113L934.2 117.5C918.3 122 886.7 131 855 135C823.3 139 791.7 138 760 132.5C728.3 127 696.7 117 665 114.5C633.3 112 601.7 117 570 116.5C538.3 116 506.7 110 475 105C443.3 100 411.7 96 380 98.5C348.3 101 316.7 110 285 118C253.3 126 221.7 133 190 135.5C158.3 138 126.7 136 95 139.5C63.3 143 31.7 152 15.8 156.5L0 161Z" fill="#081419"></path><path d="M0 181L15.8 179C31.7 177 63.3 173 95 170.5C126.7 168 158.3 167 190 162C221.7 157 253.3 148 285 140C316.7 132 348.3 125 380 125.5C411.7 126 443.3 134 475 140C506.7 146 538.3 150 570 148C601.7 146 633.3 138 665 139C696.7 140 728.3 150 760 156C791.7 162 823.3 164 855 161.5C886.7 159 918.3 152 934.2 148.5L950 145L950 122L934.2 127C918.3 132 886.7 142 855 145.5C823.3 149 791.7 146 760 139.5C728.3 133 696.7 123 665 121.5C633.3 120 601.7 127 570 127.5C538.3 128 506.7 122 475 117C443.3 112 411.7 108 380 109.5C348.3 111 316.7 118 285 126C253.3 134 221.7 143 190 147C158.3 151 126.7 150 95 152.5C63.3 155 31.7 161 15.8 164L0 167Z" fill="#0a1419"></path><path d="M0 190L15.8 187.5C31.7 185 63.3 180 95 178C126.7 176 158.3 177 190 172.5C221.7 168 253.3 158 285 149.5C316.7 141 348.3 134 380 134C411.7 134 443.3 141 475 147.5C506.7 154 538.3 160 570 159C601.7 158 633.3 150 665 151.5C696.7 153 728.3 164 760 170.5C791.7 177 823.3 179 855 175C886.7 171 918.3 161 934.2 156L950 151L950 143L934.2 146.5C918.3 150 886.7 157 855 159.5C823.3 162 791.7 160 760 154C728.3 148 696.7 138 665 137C633.3 136 601.7 144 570 146C538.3 148 506.7 144 475 138C443.3 132 411.7 124 380 123.5C348.3 123 316.7 130 285 138C253.3 146 221.7 155 190 160C158.3 165 126.7 166 95 168.5C63.3 171 31.7 175 15.8 177L0 179Z" fill="#0c1419"></path><path d="M0 202L15.8 199.5C31.7 197 63.3 192 95 189.5C126.7 187 158.3 187 190 183C221.7 179 253.3 171 285 164C316.7 157 348.3 151 380 151.5C411.7 152 443.3 159 475 164C506.7 169 538.3 172 570 169.5C601.7 167 633.3 159 665 160.5C696.7 162 728.3 173 760 180C791.7 187 823.3 190 855 187.5C886.7 185 918.3 177 934.2 173L950 169L950 149L934.2 154C918.3 159 886.7 169 855 173C823.3 177 791.7 175 760 168.5C728.3 162 696.7 151 665 149.5C633.3 148 601.7 156 570 157C538.3 158 506.7 152 475 145.5C443.3 139 411.7 132 380 132C348.3 132 316.7 139 285 147.5C253.3 156 221.7 166 190 170.5C158.3 175 126.7 174 95 176C63.3 178 31.7 183 15.8 185.5L0 188Z" fill="#0d1419"></path><path d="M0 247L15.8 242.5C31.7 238 63.3 229 95 228.5C126.7 228 158.3 236 190 237C221.7 238 253.3 232 285 229.5C316.7 227 348.3 228 380 232C411.7 236 443.3 243 475 242.5C506.7 242 538.3 234 570 229.5C601.7 225 633.3 224 665 226.5C696.7 229 728.3 235 760 239C791.7 243 823.3 245 855 245.5C886.7 246 918.3 245 934.2 244.5L950 244L950 167L934.2 171C918.3 175 886.7 183 855 185.5C823.3 188 791.7 185 760 178C728.3 171 696.7 160 665 158.5C633.3 157 601.7 165 570 167.5C538.3 170 506.7 167 475 162C443.3 157 411.7 150 380 149.5C348.3 149 316.7 155 285 162C253.3 169 221.7 177 190 181C158.3 185 126.7 185 95 187.5C63.3 190 31.7 195 15.8 197.5L0 200Z" fill="#0f1419"></path><path d="M0 262L15.8 258C31.7 254 63.3 246 95 244.5C126.7 243 158.3 248 190 247.5C221.7 247 253.3 241 285 240C316.7 239 348.3 243 380 248C411.7 253 443.3 259 475 258.5C506.7 258 538.3 251 570 247C601.7 243 633.3 242 665 244C696.7 246 728.3 251 760 253.5C791.7 256 823.3 256 855 257C886.7 258 918.3 260 934.2 261L950 262L950 242L934.2 242.5C918.3 243 886.7 244 855 243.5C823.3 243 791.7 241 760 237C728.3 233 696.7 227 665 224.5C633.3 222 601.7 223 570 227.5C538.3 232 506.7 240 475 240.5C443.3 241 411.7 234 380 230C348.3 226 316.7 225 285 227.5C253.3 230 221.7 236 190 235C158.3 234 126.7 226 95 226.5C63.3 227 31.7 236 15.8 240.5L0 245Z" fill="#101518"></path><path d="M0 283L15.8 281.5C31.7 280 63.3 277 95 276.5C126.7 276 158.3 278 190 277.5C221.7 277 253.3 274 285 272.5C316.7 271 348.3 271 380 273C411.7 275 443.3 279 475 280C506.7 281 538.3 279 570 277.5C601.7 276 633.3 275 665 274.5C696.7 274 728.3 274 760 275C791.7 276 823.3 278 855 279.5C886.7 281 918.3 282 934.2 282.5L950 283L950 260L934.2 259C918.3 258 886.7 256 855 255C823.3 254 791.7 254 760 251.5C728.3 249 696.7 244 665 242C633.3 240 601.7 241 570 245C538.3 249 506.7 256 475 256.5C443.3 257 411.7 251 380 246C348.3 241 316.7 237 285 238C253.3 239 221.7 245 190 245.5C158.3 246 126.7 241 95 242.5C63.3 244 31.7 252 15.8 256L0 260Z" fill="#111518"></path><path d="M0 301L15.8 301C31.7 301 63.3 301 95 301C126.7 301 158.3 301 190 301C221.7 301 253.3 301 285 301C316.7 301 348.3 301 380 301C411.7 301 443.3 301 475 301C506.7 301 538.3 301 570 301C601.7 301 633.3 301 665 301C696.7 301 728.3 301 760 301C791.7 301 823.3 301 855 301C886.7 301 918.3 301 934.2 301L950 301L950 281L934.2 280.5C918.3 280 886.7 279 855 277.5C823.3 276 791.7 274 760 273C728.3 272 696.7 272 665 272.5C633.3 273 601.7 274 570 275.5C538.3 277 506.7 279 475 278C443.3 277 411.7 273 380 271C348.3 269 316.7 269 285 270.5C253.3 272 221.7 275 190 275.5C158.3 276 126.7 274 95 274.5C63.3 275 31.7 278 15.8 279.5L0 281Z" fill="#121518"></path></svg>