<svg id="visual" viewBox="0 0 950 600" width="950" height="600" xmlns="http://www.w3.org/2000/svg" xmlns:xlink="http://www.w3.org/1999/xlink" version="1.1"><g transform="translate(447.95975587072087 326.41995305692967)"><path d="M163.5 -276.3C217.6 -251.9 271.2 -219.7 292.7 -172.3C314.2 -125 303.6 -62.5 298.7 -2.8C293.8 56.8 294.5 113.7 272.3 159.7C250 205.8 204.8 241 155.6 252.4C106.3 263.8 53.2 251.4 3.3 245.8C-46.7 240.2 -93.3 241.3 -130 222.7C-166.7 204 -193.3 165.5 -209 125.1C-224.8 84.7 -229.6 42.3 -238.5 -5.2C-247.5 -52.7 -260.6 -105.3 -242.6 -141.9C-224.6 -178.4 -175.6 -198.7 -129.9 -228.1C-84.3 -257.4 -42.2 -295.7 6.2 -306.5C54.7 -317.4 109.3 -300.7 163.5 -276.3" fill="#BB004B"></path></g></svg>