<svg id="visual" viewBox="0 0 950 300" width="950" height="300" xmlns="http://www.w3.org/2000/svg" xmlns:xlink="http://www.w3.org/1999/xlink" version="1.1"><path d="M0 200L17.7 187.7C35.3 175.3 70.7 150.7 105.8 143.3C141 136 176 146 211.2 153.7C246.3 161.3 281.7 166.7 316.8 161.2C352 155.7 387 139.3 422.2 139.3C457.3 139.3 492.7 155.7 527.8 164.2C563 172.7 598 173.3 633.2 176.8C668.3 180.3 703.7 186.7 738.8 196C774 205.3 809 217.7 844.2 224.3C879.3 231 914.7 232 932.3 232.5L950 233L950 301L932.3 301C914.7 301 879.3 301 844.2 301C809 301 774 301 738.8 301C703.7 301 668.3 301 633.2 301C598 301 563 301 527.8 301C492.7 301 457.3 301 422.2 301C387 301 352 301 316.8 301C281.7 301 246.3 301 211.2 301C176 301 141 301 105.8 301C70.7 301 35.3 301 17.7 301L0 301Z" fill="#b74300"></path><path d="M0 192L17.7 185.3C35.3 178.7 70.7 165.3 105.8 162C141 158.7 176 165.3 211.2 181C246.3 196.7 281.7 221.3 316.8 218.7C352 216 387 186 422.2 170.5C457.3 155 492.7 154 527.8 164.5C563 175 598 197 633.2 199.3C668.3 201.7 703.7 184.3 738.8 176.8C774 169.3 809 171.7 844.2 176.7C879.3 181.7 914.7 189.3 932.3 193.2L950 197L950 301L932.3 301C914.7 301 879.3 301 844.2 301C809 301 774 301 738.8 301C703.7 301 668.3 301 633.2 301C598 301 563 301 527.8 301C492.7 301 457.3 301 422.2 301C387 301 352 301 316.8 301C281.7 301 246.3 301 211.2 301C176 301 141 301 105.8 301C70.7 301 35.3 301 17.7 301L0 301Z" fill="#ce6600"></path><path d="M0 180L17.7 184.3C35.3 188.7 70.7 197.3 105.8 204.3C141 211.3 176 216.7 211.2 214C246.3 211.3 281.7 200.7 316.8 207.8C352 215 387 240 422.2 243.3C457.3 246.7 492.7 228.3 527.8 217.7C563 207 598 204 633.2 209.2C668.3 214.3 703.7 227.7 738.8 235.5C774 243.3 809 245.7 844.2 249C879.3 252.3 914.7 256.7 932.3 258.8L950 261L950 301L932.3 301C914.7 301 879.3 301 844.2 301C809 301 774 301 738.8 301C703.7 301 668.3 301 633.2 301C598 301 563 301 527.8 301C492.7 301 457.3 301 422.2 301C387 301 352 301 316.8 301C281.7 301 246.3 301 211.2 301C176 301 141 301 105.8 301C70.7 301 35.3 301 17.7 301L0 301Z" fill="#e28800"></path><path d="M0 210L17.7 222C35.3 234 70.7 258 105.8 263C141 268 176 254 211.2 247.5C246.3 241 281.7 242 316.8 242.8C352 243.7 387 244.3 422.2 240C457.3 235.7 492.7 226.3 527.8 226C563 225.7 598 234.3 633.2 241.7C668.3 249 703.7 255 738.8 251C774 247 809 233 844.2 235.8C879.3 238.7 914.7 258.3 932.3 268.2L950 278L950 301L932.3 301C914.7 301 879.3 301 844.2 301C809 301 774 301 738.8 301C703.7 301 668.3 301 633.2 301C598 301 563 301 527.8 301C492.7 301 457.3 301 422.2 301C387 301 352 301 316.8 301C281.7 301 246.3 301 211.2 301C176 301 141 301 105.8 301C70.7 301 35.3 301 17.7 301L0 301Z" fill="#f3ac00"></path><path d="M0 294L17.7 289.2C35.3 284.3 70.7 274.7 105.8 270C141 265.3 176 265.7 211.2 269C246.3 272.3 281.7 278.7 316.8 276.3C352 274 387 263 422.2 262.8C457.3 262.7 492.7 273.3 527.8 272.3C563 271.3 598 258.7 633.2 256.7C668.3 254.7 703.7 263.3 738.8 271C774 278.7 809 285.3 844.2 283.5C879.3 281.7 914.7 271.3 932.3 266.2L950 261L950 301L932.3 301C914.7 301 879.3 301 844.2 301C809 301 774 301 738.8 301C703.7 301 668.3 301 633.2 301C598 301 563 301 527.8 301C492.7 301 457.3 301 422.2 301C387 301 352 301 316.8 301C281.7 301 246.3 301 211.2 301C176 301 141 301 105.8 301C70.7 301 35.3 301 17.7 301L0 301Z" fill="#ffd100"></path></svg>