<svg id="visual" viewBox="0 0 950 300" width="950" height="300" xmlns="http://www.w3.org/2000/svg" xmlns:xlink="http://www.w3.org/1999/xlink" version="1.1"><path d="M0 67L14.3 64.5C28.7 62 57.3 57 86.2 46C115 35 144 18 172.8 24.7C201.7 31.3 230.3 61.7 259 69.5C287.7 77.3 316.3 62.7 345.2 66.3C374 70 403 92 431.8 87C460.7 82 489.3 50 518.2 50.7C547 51.3 576 84.7 604.8 99C633.7 113.3 662.3 108.7 691 101.3C719.7 94 748.3 84 777.2 74.2C806 64.3 835 54.7 863.8 58C892.7 61.3 921.3 77.7 935.7 85.8L950 94L950 0L935.7 0C921.3 0 892.7 0 863.8 0C835 0 806 0 777.2 0C748.3 0 719.7 0 691 0C662.3 0 633.7 0 604.8 0C576 0 547 0 518.2 0C489.3 0 460.7 0 431.8 0C403 0 374 0 345.2 0C316.3 0 287.7 0 259 0C230.3 0 201.7 0 172.8 0C144 0 115 0 86.2 0C57.3 0 28.7 0 14.3 0L0 0Z" fill="#0066FF" stroke-linecap="round" stroke-linejoin="miter"></path></svg>