<svg id="visual" viewBox="0 0 950 300" width="950" height="300" xmlns="http://www.w3.org/2000/svg" xmlns:xlink="http://www.w3.org/1999/xlink" version="1.1"><path d="M0 104L22.7 102.5C45.3 101 90.7 98 135.8 93.7C181 89.3 226 83.7 271.2 83C316.3 82.3 361.7 86.7 407 82.7C452.3 78.7 497.7 66.3 543 76C588.3 85.7 633.7 117.3 678.8 115.8C724 114.3 769 79.7 814.2 66.8C859.3 54 904.7 63 927.3 67.5L950 72L950 0L927.3 0C904.7 0 859.3 0 814.2 0C769 0 724 0 678.8 0C633.7 0 588.3 0 543 0C497.7 0 452.3 0 407 0C361.7 0 316.3 0 271.2 0C226 0 181 0 135.8 0C90.7 0 45.3 0 22.7 0L0 0Z" fill="#fa7268"></path><path d="M0 72L22.7 70C45.3 68 90.7 64 135.8 68.3C181 72.7 226 85.3 271.2 94.5C316.3 103.7 361.7 109.3 407 110C452.3 110.7 497.7 106.3 543 95.8C588.3 85.3 633.7 68.7 678.8 67C724 65.3 769 78.7 814.2 85.7C859.3 92.7 904.7 93.3 927.3 93.7L950 94L950 0L927.3 0C904.7 0 859.3 0 814.2 0C769 0 724 0 678.8 0C633.7 0 588.3 0 543 0C497.7 0 452.3 0 407 0C361.7 0 316.3 0 271.2 0C226 0 181 0 135.8 0C90.7 0 45.3 0 22.7 0L0 0Z" fill="#eb5967"></path><path d="M0 61L22.7 62.7C45.3 64.3 90.7 67.7 135.8 61.3C181 55 226 39 271.2 31.2C316.3 23.3 361.7 23.7 407 22.7C452.3 21.7 497.7 19.3 543 24.5C588.3 29.7 633.7 42.3 678.8 44.2C724 46 769 37 814.2 41.7C859.3 46.3 904.7 64.7 927.3 73.8L950 83L950 0L927.3 0C904.7 0 859.3 0 814.2 0C769 0 724 0 678.8 0C633.7 0 588.3 0 543 0C497.7 0 452.3 0 407 0C361.7 0 316.3 0 271.2 0C226 0 181 0 135.8 0C90.7 0 45.3 0 22.7 0L0 0Z" fill="#da3f67"></path><path d="M0 10L22.7 11.3C45.3 12.7 90.7 15.3 135.8 21.5C181 27.7 226 37.3 271.2 42.2C316.3 47 361.7 47 407 46.7C452.3 46.3 497.7 45.7 543 45.3C588.3 45 633.7 45 678.8 42.3C724 39.7 769 34.3 814.2 27.3C859.3 20.3 904.7 11.7 927.3 7.3L950 3L950 0L927.3 0C904.7 0 859.3 0 814.2 0C769 0 724 0 678.8 0C633.7 0 588.3 0 543 0C497.7 0 452.3 0 407 0C361.7 0 316.3 0 271.2 0C226 0 181 0 135.8 0C90.7 0 45.3 0 22.7 0L0 0Z" fill="#c62368"></path></svg>